<svg id="visual" viewBox="0 0 1200 1440" width="1200" height="1440" xmlns="http://www.w3.org/2000/svg" xmlns:xlink="http://www.w3.org/1999/xlink" version="1.1"><rect x="0" y="0" width="1200" height="1440" fill="#ffffff"></rect><path d="M0 1204L28.5 1203C57 1202 114 1200 171.2 1188.8C228.3 1177.7 285.7 1157.3 342.8 1139.7C400 1122 457 1107 514.2 1100.8C571.3 1094.7 628.7 1097.3 685.8 1118C743 1138.7 800 1177.3 857.2 1163.5C914.3 1149.7 971.7 1083.3 1028.8 1059C1086 1034.7 1143 1052.3 1171.5 1061.2L1200 1070L1200 1441L1171.5 1441C1143 1441 1086 1441 1028.8 1441C971.7 1441 914.3 1441 857.2 1441C800 1441 743 1441 685.8 1441C628.7 1441 571.3 1441 514.2 1441C457 1441 400 1441 342.8 1441C285.7 1441 228.3 1441 171.2 1441C114 1441 57 1441 28.5 1441L0 1441Z" fill="#d9f3ef"></path></svg>